<mxfile host="app.diagrams.net" modified="2024-05-18T18:55:03.921Z" agent="Mozilla/5.0 (Windows NT 10.0; Win64; x64) AppleWebKit/537.36 (KHTML, like Gecko) Chrome/124.0.0.0 Safari/537.36" etag="0SLDFo-O-SKn5Jb5pvQt" version="24.4.4" type="device" pages="2">
  <diagram id="OJ75zlZ3bGXf0F_jo_-T" name="organizacao_gcp">
    <mxGraphModel dx="2514" dy="1337" grid="1" gridSize="10" guides="1" tooltips="1" connect="1" arrows="1" fold="1" page="1" pageScale="1" pageWidth="827" pageHeight="1169" math="0" shadow="0">
      <root>
        <mxCell id="0" />
        <mxCell id="1" parent="0" />
        <mxCell id="lwq8H0B81Pt8OWV8RZo5-4" value="" style="edgeStyle=orthogonalEdgeStyle;rounded=0;orthogonalLoop=1;jettySize=auto;html=1;" parent="1" source="lwq8H0B81Pt8OWV8RZo5-1" target="lwq8H0B81Pt8OWV8RZo5-3" edge="1">
          <mxGeometry relative="1" as="geometry">
            <Array as="points">
              <mxPoint x="390" y="110" />
            </Array>
          </mxGeometry>
        </mxCell>
        <mxCell id="Ob53QF6qUCBLTEmbPEik-6" style="edgeStyle=orthogonalEdgeStyle;rounded=0;orthogonalLoop=1;jettySize=auto;html=1;exitX=1;exitY=0.5;exitDx=0;exitDy=0;entryX=0.5;entryY=0;entryDx=0;entryDy=0;" edge="1" parent="1" source="lwq8H0B81Pt8OWV8RZo5-1" target="lwq8H0B81Pt8OWV8RZo5-11">
          <mxGeometry relative="1" as="geometry" />
        </mxCell>
        <mxCell id="Ob53QF6qUCBLTEmbPEik-7" style="edgeStyle=orthogonalEdgeStyle;rounded=0;orthogonalLoop=1;jettySize=auto;html=1;exitX=0;exitY=0.5;exitDx=0;exitDy=0;entryX=0.5;entryY=0;entryDx=0;entryDy=0;" edge="1" parent="1" source="lwq8H0B81Pt8OWV8RZo5-1" target="lwq8H0B81Pt8OWV8RZo5-10">
          <mxGeometry relative="1" as="geometry" />
        </mxCell>
        <mxCell id="lwq8H0B81Pt8OWV8RZo5-1" value="mlbsantos.com.br" style="rounded=0;whiteSpace=wrap;html=1;fillColor=#dae8fc;strokeColor=#6c8ebf;" parent="1" vertex="1">
          <mxGeometry x="330" y="50" width="120" height="60" as="geometry" />
        </mxCell>
        <mxCell id="Ob53QF6qUCBLTEmbPEik-15" style="edgeStyle=orthogonalEdgeStyle;rounded=0;orthogonalLoop=1;jettySize=auto;html=1;exitX=0.5;exitY=1;exitDx=0;exitDy=0;entryX=0.5;entryY=0;entryDx=0;entryDy=0;" edge="1" parent="1" source="lwq8H0B81Pt8OWV8RZo5-3" target="Ob53QF6qUCBLTEmbPEik-9">
          <mxGeometry relative="1" as="geometry" />
        </mxCell>
        <mxCell id="lwq8H0B81Pt8OWV8RZo5-3" value="devios" style="whiteSpace=wrap;html=1;fillColor=#dae8fc;strokeColor=#6c8ebf;rounded=0;" parent="1" vertex="1">
          <mxGeometry x="330" y="191" width="120" height="60" as="geometry" />
        </mxCell>
        <mxCell id="Ob53QF6qUCBLTEmbPEik-14" style="edgeStyle=orthogonalEdgeStyle;rounded=0;orthogonalLoop=1;jettySize=auto;html=1;exitX=0.5;exitY=1;exitDx=0;exitDy=0;entryX=0.5;entryY=0;entryDx=0;entryDy=0;" edge="1" parent="1" source="lwq8H0B81Pt8OWV8RZo5-10" target="Ob53QF6qUCBLTEmbPEik-8">
          <mxGeometry relative="1" as="geometry" />
        </mxCell>
        <mxCell id="lwq8H0B81Pt8OWV8RZo5-10" value="marketing" style="whiteSpace=wrap;html=1;fillColor=#dae8fc;strokeColor=#6c8ebf;rounded=0;" parent="1" vertex="1">
          <mxGeometry x="130" y="191" width="120" height="60" as="geometry" />
        </mxCell>
        <mxCell id="Ob53QF6qUCBLTEmbPEik-16" style="edgeStyle=orthogonalEdgeStyle;rounded=0;orthogonalLoop=1;jettySize=auto;html=1;exitX=0.5;exitY=1;exitDx=0;exitDy=0;entryX=0.5;entryY=0;entryDx=0;entryDy=0;" edge="1" parent="1" source="lwq8H0B81Pt8OWV8RZo5-11" target="Ob53QF6qUCBLTEmbPEik-10">
          <mxGeometry relative="1" as="geometry" />
        </mxCell>
        <mxCell id="lwq8H0B81Pt8OWV8RZo5-11" value="dev" style="whiteSpace=wrap;html=1;fillColor=#dae8fc;strokeColor=#6c8ebf;rounded=0;" parent="1" vertex="1">
          <mxGeometry x="537" y="191" width="120" height="60" as="geometry" />
        </mxCell>
        <mxCell id="Ob53QF6qUCBLTEmbPEik-8" value="" style="shape=actor;whiteSpace=wrap;html=1;" vertex="1" parent="1">
          <mxGeometry x="170" y="300" width="40" height="60" as="geometry" />
        </mxCell>
        <mxCell id="Ob53QF6qUCBLTEmbPEik-9" value="" style="shape=actor;whiteSpace=wrap;html=1;" vertex="1" parent="1">
          <mxGeometry x="370" y="300" width="40" height="60" as="geometry" />
        </mxCell>
        <mxCell id="Ob53QF6qUCBLTEmbPEik-10" value="" style="shape=actor;whiteSpace=wrap;html=1;" vertex="1" parent="1">
          <mxGeometry x="577" y="300" width="40" height="60" as="geometry" />
        </mxCell>
        <mxCell id="Ob53QF6qUCBLTEmbPEik-11" value="" style="verticalLabelPosition=bottom;sketch=0;html=1;fillColor=#282828;strokeColor=none;verticalAlign=top;pointerEvents=1;align=center;shape=mxgraph.cisco_safe.people_places_things_icons.icon9;" vertex="1" parent="1">
          <mxGeometry x="230" y="180" width="30" height="25" as="geometry" />
        </mxCell>
        <mxCell id="Ob53QF6qUCBLTEmbPEik-12" value="" style="verticalLabelPosition=bottom;sketch=0;html=1;fillColor=#282828;strokeColor=none;verticalAlign=top;pointerEvents=1;align=center;shape=mxgraph.cisco_safe.people_places_things_icons.icon9;" vertex="1" parent="1">
          <mxGeometry x="430" y="180" width="30" height="25" as="geometry" />
        </mxCell>
        <mxCell id="Ob53QF6qUCBLTEmbPEik-13" value="" style="verticalLabelPosition=bottom;sketch=0;html=1;fillColor=#282828;strokeColor=none;verticalAlign=top;pointerEvents=1;align=center;shape=mxgraph.cisco_safe.people_places_things_icons.icon9;" vertex="1" parent="1">
          <mxGeometry x="640" y="180" width="30" height="25" as="geometry" />
        </mxCell>
      </root>
    </mxGraphModel>
  </diagram>
  <diagram id="z-7XpXx9mp-PBBUGqZUO" name="organizacao_grupos">
    <mxGraphModel dx="856" dy="574" grid="1" gridSize="10" guides="1" tooltips="1" connect="1" arrows="1" fold="1" page="1" pageScale="1" pageWidth="827" pageHeight="1169" math="0" shadow="0">
      <root>
        <mxCell id="0" />
        <mxCell id="1" parent="0" />
        <mxCell id="r2_SFlGKL5OcZtT6BBKR-3" value="" style="edgeStyle=orthogonalEdgeStyle;rounded=0;orthogonalLoop=1;jettySize=auto;html=1;" edge="1" parent="1" source="r2_SFlGKL5OcZtT6BBKR-1" target="r2_SFlGKL5OcZtT6BBKR-2">
          <mxGeometry relative="1" as="geometry" />
        </mxCell>
        <mxCell id="r2_SFlGKL5OcZtT6BBKR-11" style="edgeStyle=orthogonalEdgeStyle;rounded=0;orthogonalLoop=1;jettySize=auto;html=1;" edge="1" parent="1" source="r2_SFlGKL5OcZtT6BBKR-1">
          <mxGeometry relative="1" as="geometry">
            <mxPoint x="410" y="220" as="targetPoint" />
          </mxGeometry>
        </mxCell>
        <mxCell id="r2_SFlGKL5OcZtT6BBKR-20" style="edgeStyle=orthogonalEdgeStyle;rounded=0;orthogonalLoop=1;jettySize=auto;html=1;" edge="1" parent="1" source="r2_SFlGKL5OcZtT6BBKR-1">
          <mxGeometry relative="1" as="geometry">
            <mxPoint x="90" y="220" as="targetPoint" />
          </mxGeometry>
        </mxCell>
        <mxCell id="r2_SFlGKL5OcZtT6BBKR-21" style="edgeStyle=orthogonalEdgeStyle;rounded=0;orthogonalLoop=1;jettySize=auto;html=1;" edge="1" parent="1" source="r2_SFlGKL5OcZtT6BBKR-1">
          <mxGeometry relative="1" as="geometry">
            <mxPoint x="580" y="220" as="targetPoint" />
          </mxGeometry>
        </mxCell>
        <mxCell id="r2_SFlGKL5OcZtT6BBKR-1" value="carlosbarbero.com.br" style="rounded=0;whiteSpace=wrap;html=1;" vertex="1" parent="1">
          <mxGeometry x="210" y="90" width="120" height="60" as="geometry" />
        </mxCell>
        <mxCell id="r2_SFlGKL5OcZtT6BBKR-5" style="edgeStyle=orthogonalEdgeStyle;rounded=0;orthogonalLoop=1;jettySize=auto;html=1;" edge="1" parent="1" source="r2_SFlGKL5OcZtT6BBKR-2">
          <mxGeometry relative="1" as="geometry">
            <mxPoint x="270" y="360" as="targetPoint" />
          </mxGeometry>
        </mxCell>
        <mxCell id="r2_SFlGKL5OcZtT6BBKR-2" value="devops" style="whiteSpace=wrap;html=1;rounded=0;" vertex="1" parent="1">
          <mxGeometry x="210" y="230" width="120" height="60" as="geometry" />
        </mxCell>
        <mxCell id="r2_SFlGKL5OcZtT6BBKR-4" value="" style="shape=actor;whiteSpace=wrap;html=1;" vertex="1" parent="1">
          <mxGeometry x="250" y="370" width="40" height="60" as="geometry" />
        </mxCell>
        <mxCell id="r2_SFlGKL5OcZtT6BBKR-6" value="" style="sketch=0;pointerEvents=1;shadow=0;dashed=0;html=1;strokeColor=none;labelPosition=center;verticalLabelPosition=bottom;verticalAlign=top;align=center;fillColor=#505050;shape=mxgraph.mscae.intune.user_group" vertex="1" parent="1">
          <mxGeometry x="180" y="210" width="50" height="37" as="geometry" />
        </mxCell>
        <mxCell id="r2_SFlGKL5OcZtT6BBKR-10" style="edgeStyle=orthogonalEdgeStyle;rounded=0;orthogonalLoop=1;jettySize=auto;html=1;" edge="1" parent="1" source="r2_SFlGKL5OcZtT6BBKR-7">
          <mxGeometry relative="1" as="geometry">
            <mxPoint x="410" y="360" as="targetPoint" />
          </mxGeometry>
        </mxCell>
        <mxCell id="r2_SFlGKL5OcZtT6BBKR-7" value="sre" style="whiteSpace=wrap;html=1;rounded=0;" vertex="1" parent="1">
          <mxGeometry x="350" y="230" width="120" height="60" as="geometry" />
        </mxCell>
        <mxCell id="r2_SFlGKL5OcZtT6BBKR-8" value="" style="sketch=0;pointerEvents=1;shadow=0;dashed=0;html=1;strokeColor=none;labelPosition=center;verticalLabelPosition=bottom;verticalAlign=top;align=center;fillColor=#505050;shape=mxgraph.mscae.intune.user_group" vertex="1" parent="1">
          <mxGeometry x="440" y="210" width="50" height="37" as="geometry" />
        </mxCell>
        <mxCell id="r2_SFlGKL5OcZtT6BBKR-9" value="" style="shape=actor;whiteSpace=wrap;html=1;" vertex="1" parent="1">
          <mxGeometry x="390" y="370" width="40" height="60" as="geometry" />
        </mxCell>
        <mxCell id="r2_SFlGKL5OcZtT6BBKR-17" style="edgeStyle=orthogonalEdgeStyle;rounded=0;orthogonalLoop=1;jettySize=auto;html=1;" edge="1" parent="1" source="r2_SFlGKL5OcZtT6BBKR-12">
          <mxGeometry relative="1" as="geometry">
            <mxPoint x="570" y="360" as="targetPoint" />
          </mxGeometry>
        </mxCell>
        <mxCell id="r2_SFlGKL5OcZtT6BBKR-12" value="financeiro" style="whiteSpace=wrap;html=1;rounded=0;" vertex="1" parent="1">
          <mxGeometry x="510" y="230" width="120" height="60" as="geometry" />
        </mxCell>
        <mxCell id="r2_SFlGKL5OcZtT6BBKR-19" style="edgeStyle=orthogonalEdgeStyle;rounded=0;orthogonalLoop=1;jettySize=auto;html=1;entryX=0.5;entryY=0;entryDx=0;entryDy=0;" edge="1" parent="1" source="r2_SFlGKL5OcZtT6BBKR-13" target="r2_SFlGKL5OcZtT6BBKR-18">
          <mxGeometry relative="1" as="geometry" />
        </mxCell>
        <mxCell id="r2_SFlGKL5OcZtT6BBKR-13" value="marketing" style="whiteSpace=wrap;html=1;rounded=0;" vertex="1" parent="1">
          <mxGeometry x="30" y="230" width="120" height="60" as="geometry" />
        </mxCell>
        <mxCell id="r2_SFlGKL5OcZtT6BBKR-14" value="" style="sketch=0;pointerEvents=1;shadow=0;dashed=0;html=1;strokeColor=none;labelPosition=center;verticalLabelPosition=bottom;verticalAlign=top;align=center;fillColor=#505050;shape=mxgraph.mscae.intune.user_group" vertex="1" parent="1">
          <mxGeometry x="10" y="210" width="50" height="37" as="geometry" />
        </mxCell>
        <mxCell id="r2_SFlGKL5OcZtT6BBKR-15" value="" style="sketch=0;pointerEvents=1;shadow=0;dashed=0;html=1;strokeColor=none;labelPosition=center;verticalLabelPosition=bottom;verticalAlign=top;align=center;fillColor=#505050;shape=mxgraph.mscae.intune.user_group" vertex="1" parent="1">
          <mxGeometry x="600" y="210" width="50" height="37" as="geometry" />
        </mxCell>
        <mxCell id="r2_SFlGKL5OcZtT6BBKR-16" value="" style="shape=actor;whiteSpace=wrap;html=1;" vertex="1" parent="1">
          <mxGeometry x="550" y="370" width="40" height="60" as="geometry" />
        </mxCell>
        <mxCell id="r2_SFlGKL5OcZtT6BBKR-18" value="" style="shape=actor;whiteSpace=wrap;html=1;" vertex="1" parent="1">
          <mxGeometry x="70" y="370" width="40" height="60" as="geometry" />
        </mxCell>
      </root>
    </mxGraphModel>
  </diagram>
</mxfile>
